<?xml version="1.0" encoding="utf-8"?>
<!-- Generator: Adobe Illustrator 24.1.2, SVG Export Plug-In . SVG Version: 6.00 Build 0)  -->
<svg preserveAspectRatio="none" version="1.1" id="Layer_1" xmlns="http://www.w3.org/2000/svg" xmlns:xlink="http://www.w3.org/1999/xlink" x="0px" y="0px"
	 viewBox="0 0 118 32" style="enable-background:new 0 0 118 32;" xml:space="preserve">
	<path fill-rule="evenodd" clip-rule="evenodd" d="M99.41,31.5c-1.66,0-3.37-0.22-4.88-0.41c-1.67-0.22-3.37-0.37-5.02-0.51c-0.89-0.08-1.77-0.15-2.66-0.24
		c-1.47-0.15-2.97-0.21-4.42-0.26c-1.46-0.06-2.97-0.12-4.43-0.27c-2.84-0.29-5.72-0.42-8.51-0.54c-1.3-0.06-2.61-0.11-3.91-0.19
		c-0.32-0.02-0.65-0.05-0.97-0.08c-0.59-0.05-1.21-0.1-1.82-0.1l-0.21,0c-0.35,0.01-0.7,0.01-1.05,0.01c-1.66,0-3.36-0.08-5-0.15
		c-1.65-0.08-3.36-0.16-5.04-0.16c-0.25,0-1.19,0.01-1.19,0.01c-0.54,0-1.09-0.01-1.63-0.02c-0.55-0.01-1.11-0.02-1.66-0.02
		c-0.23,0-0.46,0-0.68,0.01c-0.51,0.01-1.02,0.03-1.54,0.05c-0.77,0.03-1.55,0.06-2.33,0.06c-1.08,0-1.97-0.06-2.8-0.2
		c-0.25-0.04-0.52-0.06-0.81-0.06c-0.42,0-0.85,0.04-1.27,0.08c-0.39,0.04-0.78,0.08-1.16,0.08c-0.68,0-1.37,0.03-2.05,0.05
		c-0.7,0.03-1.4,0.05-2.1,0.05c-1.03,0-1.88-0.06-2.67-0.18c-0.43-0.07-0.91-0.1-1.45-0.1c-0.5,0-1,0.03-1.5,0.06
		c-0.49,0.03-0.97,0.05-1.45,0.05c0,0-0.89,0-1.28,0l-2.07,0c-2.48,0-5.13-0.04-7.73-0.5c-0.31-0.05-0.61-0.09-0.92-0.13
		c-0.5-0.06-0.97-0.11-1.43-0.25c0.02-0.01,0.04-0.01,0.07-0.02c0.31-0.08,0.69-0.18,1.02-0.47c0.13-0.11,0.19-0.29,0.16-0.46
		c-0.06-0.33-0.29-0.51-0.46-0.61c0,0,0.01,0,0.01,0c0.15-0.08,0.33-0.18,0.47-0.36c0.16-0.21,0.13-0.51-0.08-0.68
		c-0.21-0.18-0.43-0.36-0.47-0.42c0,0,0,0,0,0c0.02,0,0.1-0.19,0.17-0.35c0.06-0.15,0.05-0.31-0.03-0.45
		c-0.08-0.14-0.22-0.23-0.38-0.24c-0.82-0.09-1.7-0.13-2.76-0.13c-0.72,0-1.45,0.02-2.18,0.04c-0.73,0.02-1.46,0.04-2.2,0.04
		c-1.19,0-2.19-0.05-3.1-0.16c0.06-0.01,0.31-0.05,0.31-0.05c0.46-0.08,0.98-0.18,1.58-0.47c0.19-0.09,0.3-0.3,0.28-0.51
		c-0.03-0.21-0.19-0.38-0.4-0.43c-0.21-0.04-0.42-0.06-0.63-0.08C3,21.8,2.89,21.78,2.79,21.77c0.13-0.04,0.25-0.12,0.36-0.24
		c0.09-0.1,0.14-0.23,0.13-0.37c-0.01-0.18-0.08-0.55-0.45-0.71c0.4-0.25,0.89-0.33,1.43-0.42c0.37-0.06,0.75-0.13,1.13-0.25
		c0.23-0.08,0.38-0.31,0.34-0.55C5.7,19,5.5,18.82,5.25,18.81c-1.03-0.02-1.98-0.36-2.96-0.75c0.33-0.18,0.74-0.21,1.3-0.25
		c0.47-0.03,1-0.06,1.53-0.24c0.2-0.07,0.34-0.26,0.34-0.47s-0.13-0.41-0.33-0.48c-0.7-0.25-1.34-0.28-1.88-0.28l-0.84,0.01
		c-0.13,0-0.27,0-0.41-0.01c0.1-0.24,0.32-0.39,0.8-0.52c0.16-0.04,0.36-0.05,0.58-0.05c0.53-0.02,1.25-0.04,1.77-0.72
		c0.11-0.15,0.13-0.34,0.06-0.51c-0.07-0.17-0.23-0.28-0.42-0.29c-0.21-0.02-0.42-0.02-0.63-0.02l-0.71,0.01
		c-0.44,0-0.81-0.03-1.13-0.13c0.1-0.02,0.24-0.03,0.4-0.05c0.46-0.06,0.73-0.35,0.92-0.56c0.17-0.18,0.23-0.23,0.31-0.23
		c0.02,0,0.05,0.01,0.07,0.01c0.23,0,0.46-0.16,0.51-0.39c0.06-0.25-0.07-0.51-0.32-0.59c-0.46-0.14-0.96-0.32-1.4-0.6
		c0.31-0.25,0.4-0.53,0.31-0.86c-0.06-0.22-0.26-0.37-0.48-0.37c0,0-0.01,0-0.01,0c-0.28,0-0.52-0.01-0.74-0.04
		c0.35-0.07,0.81-0.19,1.13-0.6C3.16,9.66,3.18,9.46,3.1,9.29C3.01,9.11,2.84,9.01,2.65,9.01l-0.99,0c-0.23,0-0.46,0-0.68-0.01
		C0.58,8.99,0.5,8.91,0.5,8.91c0.02,0,0.5-0.1,0.5-0.1c0.48-0.13,0.98-0.16,1.5-0.2c0.92-0.07,1.87-0.14,2.77-0.69
		C5.41,7.83,5.5,7.69,5.51,7.53S5.46,7.22,5.34,7.12c-0.18-0.16-0.36-0.29-0.56-0.4c0.04-0.05,0.08-0.1,0.1-0.16
		c0.07-0.19,0.03-0.4-0.12-0.54c-0.11-0.1-0.23-0.19-0.35-0.27c-0.01,0-0.01-0.01-0.02-0.01c0.02,0,0.19,0,0.19,0
		c0.08,0.01,0.17,0.01,0.25,0.01c0.49,0,0.96-0.09,1.41-0.17C6.69,5.49,7.09,5.41,7.5,5.41c0.08,0,0.16,0,0.24,0.01
		c0.01,0,0.03,0,0.04,0c0.24,0,0.45-0.17,0.49-0.42c0.04-0.26-0.12-0.5-0.37-0.57C7.34,4.3,6.76,4.28,6.27,4.28L5.36,4.28
		c-0.79,0-1.42-0.07-1.98-0.36c0.36-0.22,0.8-0.23,1.26-0.24c0.14,0,0.28-0.01,0.42-0.02c1.63-0.1,3.25-0.34,4.82-0.57
		c1.17-0.17,2.39-0.35,3.59-0.47c1.16-0.12,2.32-0.22,3.48-0.32c2.51-0.22,5.1-0.45,7.64-0.82c1.05-0.16,2.16-0.18,3.23-0.19
		l0.72-0.01c3.35-0.09,6.87-0.21,10.75-0.38c0.43-0.02,0.86-0.02,1.29-0.02c0.37,0,1.84,0.02,2.21,0.02c1.21,0,2.63-0.04,4.02-0.37
		C46.9,0.51,47,0.5,47.12,0.5c0.28,0,0.58,0.07,0.84,0.13c0.3,0.08,0.62,0.11,0.98,0.11c0.45,0,0.88-0.06,1.3-0.12
		c0.41-0.05,0.79-0.11,1.17-0.11h0.13c3.24,0,6.53,0.15,9.72,0.3c2.12,0.1,4.32,0.2,6.48,0.26c1.93,0.05,3.88,0.17,5.78,0.29
		c0.96,0.06,1.92,0.12,2.88,0.17c3.21,0.17,6.48,0.48,9.64,0.79l2.53,0.24c1,0.09,2,0.22,3,0.35c1.62,0.21,3.3,0.43,4.98,0.49
		c1.15,0.04,2.34,0.23,3.48,0.42c1.14,0.18,2.31,0.37,3.48,0.42c1.93,0.08,3.86,0.38,5.74,0.66c0.87,0.13,1.73,0.27,2.6,0.38
		c0.32,0.04,0.65,0.08,0.97,0.11c1.5,0.16,2.93,0.31,4.2,1.15c-0.38,0.34-0.47,0.84-0.54,1.21c-0.1,0.55-0.17,0.74-0.53,0.85
		c-0.21,0.06-0.36,0.25-0.36,0.47c-0.01,0.22,0.13,0.41,0.33,0.49l0.22,0.08c-0.25,0.23-0.52,0.27-0.78,0.27
		c-0.35,0-0.77-0.1-1.17-0.21c-0.04-0.01-0.09-0.02-0.13-0.02c-0.16,0-0.32,0.08-0.41,0.22c-0.12,0.17-0.12,0.41,0.01,0.58
		c0.44,0.61,1.04,0.91,1.63,1.2c0.31,0.15,0.6,0.3,0.86,0.48c-0.16,0.02-0.32,0.05-0.47,0.08c-0.23,0.04-0.44,0.08-0.66,0.08
		c-0.13,0-0.24-0.01-0.36-0.04c-0.04-0.01-0.08-0.01-0.12-0.01c-0.18,0-0.36,0.1-0.45,0.27c-0.11,0.21-0.05,0.46,0.12,0.61
		c0.35,0.3,0.73,0.44,1.04,0.55c0.31,0.12,0.49,0.19,0.59,0.31c-0.1,0.21-0.25,0.26-0.62,0.26c-0.1,0-0.55-0.02-0.68-0.02
		c-0.25,0-0.45,0.02-0.64,0.06c-0.21,0.04-0.38,0.23-0.4,0.44s0.11,0.43,0.31,0.51c0.56,0.23,0.94,0.56,1.32,0.95
		c-0.12,0.02-0.25,0.04-0.39,0.04c-0.4,0-0.8-0.1-1.24-0.2c-0.47-0.11-0.95-0.22-1.46-0.22c-0.42,0-0.79,0.08-1.15,0.23
		c-0.21,0.09-0.33,0.31-0.29,0.53s0.21,0.4,0.44,0.42c1.38,0.15,2.29,0.29,2.8,1.15c-0.22,0.13-0.56,0.39-0.51,0.93
		c0,0.05,0.02,0.11,0.04,0.16c0.07,0.17,0.27,0.45,0.72,0.45c0.01,0,0.13,0,0.14,0c0.2,0.11,0.42,0.15,0.61,0.19
		c0.11,0.02,0.28,0.05,0.33,0.09c-0.05,0.11-0.23,0.13-0.34,0.15c-0.19,0.03-0.4,0.06-0.6,0.16c-0.16,0.08-0.27,0.23-0.29,0.4
		c-0.02,0.18,0.06,0.35,0.2,0.45c0.25,0.18,0.53,0.28,0.78,0.36c0.09,0.03,0.16,0.05,0.23,0.08c-0.13,0-0.26,0-0.4,0
		c-0.76,0-1.54-0.05-2.29-0.09c-0.75-0.05-1.52-0.09-2.27-0.09c-1.36,0-2.45,0.16-3.43,0.5c-0.18,0.06-0.31,0.22-0.33,0.41
		c-0.02,0.19,0.06,0.37,0.22,0.48c0.44,0.29,0.95,0.51,1.5,0.75c0.51,0.22,1.04,0.45,1.55,0.75c-0.26,0.1-0.48,0.14-0.7,0.14
		c-0.18,0-0.35-0.03-0.54-0.09c-0.41-0.14-0.83-0.15-1.2-0.15c0,0,0,0-0.01,0c-0.31,0-0.57-0.01-0.83-0.01
		c-0.27-0.01-0.53-0.01-0.8-0.01c-1.4,0-2.85,0.18-4.05,1.47c-0.09,0.1-0.14,0.23-0.13,0.37c0.01,0.12,0.06,0.23,0.13,0.31
		c-1.47-0.04-2.91-0.2-4.31-0.36c0,0-1.77-0.19-1.79-0.19c-0.21,0-0.41,0.14-0.47,0.34c-0.06,0.19-0.4,0.46-1.14,0.65
		c-0.23,0.06-0.38,0.27-0.38,0.5s0.18,0.43,0.41,0.47l1.14,0.21c0.98,0.19,2.01,0.22,2.89,0.23c0.71,0.01,1.38,0.22,2.08,0.43
		c0.53,0.16,1.08,0.33,1.66,0.41c-0.01,0.01,0.03,0.16,0.05,0.25c0.02,0.1,0.05,0.23,0.1,0.35c-0.07,0.01-0.15,0.01-0.23,0.01
		c-0.36,0-0.72-0.06-1.09-0.12c-0.39-0.06-0.79-0.13-1.21-0.13c-0.14,0-0.28,0.01-0.42,0.02c-0.18,0.02-0.34,0.14-0.41,0.31
		s-0.04,0.36,0.07,0.5c0.46,0.58,1.03,0.65,1.47,0.65c0.1,0,0.5-0.02,0.58-0.02c0.18,0,0.31,0.02,0.41,0.06
		c0.19,0.09,0.41,0.14,0.62,0.2c0.23,0.06,0.39,0.1,0.49,0.16C101.26,31.43,100.38,31.5,99.41,31.5z M43.97,26.5
		c1.08,0,2.27,0.05,3.63,0.16c1.51,0.12,3.03,0.13,4.5,0.14c1.55,0.01,3.16,0.02,4.72,0.16c1.84,0.17,3.72,0.21,5.54,0.25
		c1.27,0.03,2.53,0.05,3.79,0.12l0.36,0.02c0.35,0.02,0.72,0.04,1.07,0.07c0.65,0.06,1.35,0.09,2.19,0.09
		c0.53,0,1.05-0.01,1.55-0.02c0.35-0.01,0.69-0.01,1.02-0.02c0.26,0,0.48-0.21,0.49-0.48s-0.18-0.49-0.45-0.52
		c-12.6-1.33-25.2-2-37.46-2c-6.66,0-13.37,0.2-19.94,0.59c-0.21,0.01-0.39,0.16-0.45,0.36c-0.06,0.2,0.02,0.42,0.19,0.54
		c0.59,0.43,1.18,0.64,1.79,0.64c0.31,0,0.61-0.05,0.94-0.16c0.23-0.08,0.45-0.11,0.68-0.11c0.09,0,0.18,0,0.26,0.02
		c1.41,0.18,2.78,0.26,4.07,0.26c0.61,0,1.22-0.02,1.83-0.06c2.08-0.14,3.99-0.21,5.85-0.21c0.73,0,1.46,0.01,2.18,0.03
		c0.7,0.02,1.4,0.05,2.1,0.08c1.76,0.07,3.58,0.14,5.37,0.14c0.89,0,1.79-0.02,2.68-0.06C43,26.52,43.49,26.5,43.97,26.5z"/>
	<path fill-rule="evenodd" clip-rule="evenodd" d="M47.12,1c0.23,0,0.5,0.06,0.72,0.11c0.34,0.09,0.71,0.13,1.1,0.13c0.48,0,0.93-0.06,1.37-0.12c0.39-0.05,0.76-0.1,1.1-0.1
		l0.12,0c3.23,0,6.52,0.15,9.7,0.3c2.13,0.1,4.33,0.2,6.5,0.26c1.92,0.05,3.88,0.17,5.77,0.29c0.96,0.06,1.92,0.12,2.88,0.17
		c3.2,0.17,6.47,0.48,9.64,0.79c0.84,0.08,1.68,0.16,2.51,0.24c0.99,0.09,2.01,0.22,2.99,0.35c1.63,0.21,3.32,0.43,5.03,0.49
		c1.12,0.04,2.24,0.22,3.42,0.41c1.15,0.19,2.34,0.38,3.54,0.43c1.9,0.08,3.82,0.37,5.68,0.66c0.87,0.13,1.74,0.27,2.61,0.38
		c0.33,0.04,0.65,0.08,0.98,0.11c1.25,0.13,2.45,0.26,3.52,0.81c-0.18,0.35-0.25,0.72-0.3,0.96c-0.03,0.15-0.07,0.38-0.1,0.43
		c0,0-0.02,0.01-0.07,0.03c-0.42,0.12-0.71,0.5-0.72,0.93c0,0.12,0.01,0.23,0.05,0.34c-0.25-0.03-0.53-0.1-0.81-0.17
		c-0.09-0.02-0.17-0.03-0.26-0.03c-0.32,0-0.63,0.16-0.82,0.43c-0.24,0.35-0.24,0.81,0.01,1.16c0.33,0.45,0.73,0.76,1.14,1
		c-0.31,0.05-0.59,0.24-0.74,0.54c-0.21,0.41-0.11,0.92,0.24,1.22c0.11,0.09,0.22,0.17,0.33,0.24c-0.15,0.01-0.28,0.03-0.42,0.06
		c-0.43,0.09-0.75,0.45-0.79,0.89c-0.03,0.29,0.08,0.57,0.27,0.78c-0.38-0.08-0.79-0.16-1.22-0.16c-0.49,0-0.93,0.09-1.35,0.27
		c-0.42,0.18-0.64,0.62-0.58,1.07c0.07,0.45,0.44,0.8,0.9,0.84c1.08,0.12,1.72,0.23,2.13,0.58c-0.25,0.29-0.35,0.64-0.32,1.04
		c0.01,0.11,0.04,0.21,0.08,0.31c0.14,0.32,0.4,0.56,0.72,0.67c-0.11,0.14-0.18,0.32-0.2,0.5c-0.01,0.14,0,0.28,0.04,0.41
		c-0.33-0.02-0.67-0.04-1-0.06c-0.75-0.05-1.53-0.09-2.3-0.09c-1.42,0-2.56,0.17-3.6,0.53c-0.36,0.12-0.62,0.44-0.66,0.82
		c-0.05,0.38,0.12,0.75,0.44,0.96c0.27,0.18,0.56,0.33,0.86,0.48l-0.04,0c-0.25,0-0.51-0.01-0.77-0.01
		c-0.27-0.01-0.54-0.01-0.81-0.01c-1.44,0-3.09,0.19-4.41,1.63c-0.13,0.14-0.21,0.31-0.25,0.5c-1.19-0.06-2.38-0.19-3.63-0.33
		l-0.99-0.11l-0.38-0.04l-0.39-0.04c-0.04,0-0.08-0.01-0.11-0.01c-0.42,0-0.78,0.24-0.92,0.65c0,0-0.16,0.2-0.81,0.36
		c-0.45,0.12-0.77,0.53-0.75,1c0.02,0.47,0.35,0.86,0.81,0.95l0.87,0.16l0.27,0.05c1.02,0.2,2.07,0.23,2.98,0.24
		c0.43,0.01,0.86,0.1,1.29,0.22c-0.14,0-0.27,0.01-0.41,0.03c-0.36,0.04-0.67,0.28-0.81,0.61c-0.14,0.34-0.08,0.72,0.14,1.01
		c0.15,0.19,0.31,0.33,0.47,0.45c-1.38-0.05-2.76-0.23-4.01-0.39c-1.68-0.22-3.38-0.37-5.03-0.51c-0.89-0.08-1.77-0.15-2.66-0.24
		c-1.49-0.15-2.99-0.21-4.44-0.27c-1.45-0.06-2.95-0.12-4.4-0.27c-2.85-0.3-5.74-0.42-8.53-0.54c-1.31-0.06-2.61-0.11-3.91-0.19
		c-0.32-0.02-0.64-0.05-0.96-0.07c-0.6-0.05-1.23-0.11-1.87-0.11l-0.22,0c-0.35,0.01-0.69,0.01-1.03,0.01
		c-1.65,0-3.35-0.08-4.98-0.15c-1.66-0.08-3.37-0.16-5.07-0.16c-0.25,0-0.51,0-0.76,0.01c-0.14,0-0.28,0-0.42,0
		c-0.54,0-1.08-0.01-1.62-0.02c-0.56-0.01-1.11-0.02-1.67-0.02c-0.23,0-0.47,0-0.7,0.01c-0.51,0.01-1.03,0.03-1.54,0.05
		c-0.76,0.03-1.55,0.06-2.31,0.06c-1.05,0-1.92-0.06-2.71-0.19c-0.28-0.05-0.57-0.07-0.9-0.07c-0.45,0-0.9,0.04-1.32,0.08
		c-0.39,0.04-0.76,0.07-1.11,0.07c-0.69,0-1.39,0.03-2.07,0.05c-0.68,0.03-1.39,0.05-2.08,0.05c-1.01,0-1.83-0.06-2.6-0.18
		c-0.46-0.07-0.96-0.11-1.52-0.11c-0.52,0-1.03,0.03-1.53,0.06c-0.49,0.03-0.96,0.05-1.42,0.05l-0.1,0c-0.4,0-0.79,0-1.19,0l-1.04,0
		l-1.03,0c-2.46,0-5.07-0.04-7.64-0.5c-0.3-0.05-0.6-0.09-0.91-0.12c0.17-0.22,0.25-0.5,0.2-0.78c-0.03-0.19-0.1-0.34-0.18-0.47
		c0.03-0.04,0.07-0.08,0.1-0.12c0.32-0.43,0.25-1.03-0.16-1.37c-0.06-0.05-0.12-0.1-0.18-0.15c0.01-0.01,0.01-0.03,0.02-0.05
		c0.12-0.29,0.1-0.62-0.06-0.9c-0.16-0.27-0.44-0.45-0.76-0.49c-0.84-0.09-1.73-0.13-2.81-0.13c-0.73,0-1.46,0.02-2.2,0.04
		C6.56,23,5.83,23.02,5.1,23.02c-0.23,0-0.44,0-0.65-0.01c0.17-0.21,0.25-0.48,0.21-0.76c-0.06-0.43-0.38-0.77-0.8-0.85
		c-0.03-0.01-0.06-0.01-0.09-0.02c0.02-0.08,0.02-0.17,0.02-0.26c-0.01-0.16-0.05-0.32-0.11-0.48c0.19-0.05,0.41-0.09,0.67-0.13
		c0.39-0.06,0.79-0.13,1.2-0.27c0.46-0.15,0.75-0.61,0.68-1.1c-0.07-0.48-0.48-0.84-0.97-0.85C5,18.3,4.74,18.27,4.48,18.23
		c0.26-0.04,0.53-0.09,0.8-0.18c0.41-0.13,0.68-0.51,0.69-0.94c0.01-0.43-0.26-0.81-0.66-0.95c-0.18-0.06-0.36-0.12-0.53-0.16
		c0.28-0.13,0.55-0.34,0.79-0.65c0.22-0.29,0.26-0.68,0.12-1.01c-0.15-0.33-0.47-0.56-0.83-0.59c-0.16-0.01-0.32-0.02-0.48-0.02
		c0.34-0.1,0.62-0.37,0.7-0.74c0.12-0.51-0.18-1.02-0.68-1.18c-0.31-0.1-0.57-0.19-0.79-0.29c0.13-0.33,0.08-0.65,0.03-0.83
		c-0.05-0.18-0.15-0.34-0.28-0.46c0.03-0.03,0.06-0.07,0.09-0.11c0.23-0.3,0.27-0.71,0.11-1.05C3.54,9.05,3.53,9.03,3.52,9.02
		c0.66-0.09,1.35-0.26,2.01-0.67C5.8,8.18,5.98,7.89,6.01,7.58c0.03-0.32-0.1-0.63-0.33-0.84C5.59,6.67,5.5,6.6,5.41,6.53
		c0.02-0.11,0.02-0.21,0-0.32c0.32-0.03,0.64-0.09,0.94-0.15c0.41-0.08,0.79-0.15,1.15-0.15c0.07,0,0.13,0,0.2,0.01
		c0.03,0,0.06,0,0.08,0c0.48,0,0.9-0.35,0.98-0.83c0.09-0.51-0.23-1.01-0.73-1.14C7.95,3.94,7.87,3.92,7.78,3.9
		c0.73-0.09,1.45-0.2,2.16-0.3c1.17-0.17,2.38-0.35,3.56-0.46c1.16-0.12,2.32-0.22,3.48-0.32c2.51-0.22,5.11-0.45,7.67-0.82
		c1.01-0.15,2.1-0.17,3.16-0.19l0.73-0.01c3.35-0.09,6.87-0.21,10.76-0.38c0.42-0.02,0.84-0.02,1.27-0.02c0.36,0,0.73,0,1.09,0.01
		c0.37,0,0.74,0.01,1.12,0.01c1.23,0,2.69-0.05,4.14-0.38C46.98,1.01,47.04,1,47.12,1 M16.53,27.11c0.36,0,0.72-0.06,1.09-0.18
		c0.18-0.06,0.35-0.09,0.53-0.09c0.07,0,0.14,0,0.2,0.01c1.43,0.18,2.82,0.27,4.14,0.27c0.63,0,1.26-0.02,1.86-0.06
		c2.07-0.14,3.97-0.21,5.81-0.21c0.74,0,1.47,0.01,2.18,0.03c0.7,0.02,1.4,0.05,2.1,0.08c1.76,0.07,3.59,0.14,5.39,0.14
		c0.97,0,1.86-0.02,2.71-0.06c0.46-0.02,0.95-0.03,1.44-0.03c1.07,0,2.24,0.05,3.59,0.16c1.53,0.13,3.06,0.13,4.54,0.14
		c1.54,0.01,3.13,0.02,4.68,0.16c1.86,0.17,3.75,0.21,5.58,0.25c1.24,0.03,2.52,0.05,3.77,0.12l0.34,0.02
		c0.35,0.02,0.72,0.04,1.07,0.07c0.66,0.06,1.37,0.09,2.23,0.09c0.54,0,1.06-0.01,1.57-0.02c0.35-0.01,0.69-0.01,1.02-0.02
		c0.53,0,0.96-0.42,0.99-0.95c0.03-0.53-0.37-0.99-0.89-1.04c-12.62-1.33-25.24-2.01-37.51-2.01c-6.67,0-13.39,0.2-19.97,0.59
		c-0.42,0.03-0.78,0.31-0.9,0.72c-0.12,0.41,0.03,0.84,0.37,1.09C15.11,26.86,15.81,27.11,16.53,27.11 M4.16,13.69L4.16,13.69
		L4.16,13.69 M47.12,0c-0.15,0-0.29,0.01-0.43,0.05c-1.29,0.3-2.6,0.36-3.91,0.36c-0.74,0-1.47-0.02-2.21-0.02
		c-0.44,0-0.88,0.01-1.31,0.03c-3.57,0.15-7.16,0.28-10.74,0.38C27.2,0.82,25.83,0.81,24.51,1c-3.68,0.54-7.4,0.77-11.1,1.14
		C10.61,2.41,7.85,3,5.02,3.17C4.27,3.22,3.24,3.07,2.6,3.99c0.84,0.71,1.8,0.79,2.76,0.79c0.3,0,0.61-0.01,0.91-0.01
		c0.51,0,1.02,0.02,1.5,0.15c-0.1-0.01-0.19-0.01-0.28-0.01c-0.9,0-1.76,0.33-2.65,0.33c-0.07,0-0.15,0-0.22-0.01
		c-0.05,0-0.09,0-0.14,0c-0.29,0-0.55,0.07-0.65,0.37C3.7,6.02,4.13,6.1,4.42,6.37C4,6.39,3.7,6.53,3.4,6.87c0.02,0,0.03,0,0.05,0
		c0.66,0,1.15,0.26,1.57,0.62C3.72,8.28,2.24,7.97,0.89,8.32C0.52,8.41,0,8.44,0,8.88C-0.01,9.4,0.52,9.49,0.96,9.5
		c0.23,0.01,0.47,0.01,0.71,0.01c0.32,0,0.65,0,0.99,0c-0.52,0.67-1.59,0.19-1.87,1.08c0.57,0.3,1.19,0.36,1.79,0.36
		c0.03,0,0.06,0,0.09,0C2.8,11.45,2,11.29,2.17,11.82c0.53,0.44,1.18,0.71,1.92,0.94c-0.04-0.01-0.08-0.01-0.12-0.01
		c-0.6,0-0.71,0.73-1.29,0.8c-1.05,0.13-1.05,0.18-1.32,0.56c0.63,0.55,1.36,0.62,2.11,0.62c0.23,0,0.47-0.01,0.7-0.01
		c0.2,0,0.39,0,0.59,0.02c-0.56,0.73-1.4,0.42-2.08,0.6c-0.86,0.23-1.22,0.61-1.25,1.44c0.33,0.07,0.66,0.08,0.99,0.08
		c0.28,0,0.56-0.01,0.84-0.01c0.54,0,1.1,0.04,1.71,0.25c-1.34,0.44-2.73-0.13-3.57,1.14c1.28,0.52,2.47,1.05,3.84,1.08
		c-1.16,0.38-2.54,0.16-3.34,1.36c0.05,0.18,0.2,0.2,0.36,0.2c0.05,0,0.1,0,0.15,0c0.19,0,0.36,0.03,0.38,0.32
		c-0.29,0.32-0.92-0.05-1.07,0.53c0.44,0.66,1.2,0.51,1.95,0.66c-0.53,0.26-0.97,0.34-1.44,0.43c-0.42,0.07-0.96,0.08-1.45,0.86
		c1.46,0.27,2.9,0.34,4.33,0.34c1.48,0,2.94-0.07,4.38-0.07c0.91,0,1.81,0.03,2.71,0.12c-0.31,0.73-0.31,0.73,0.44,1.35
		c-0.2,0.26-0.69,0.27-0.7,0.69c-0.01,0.37,0.54,0.36,0.59,0.67c-0.56,0.49-1.37,0.26-1.81,0.95c1.08,0.64,2.22,0.58,3.32,0.77
		c2.59,0.46,5.2,0.51,7.81,0.51c0.69,0,1.38,0,2.07,0c0.39,0,0.79,0,1.18,0c0.04,0,0.07,0,0.11,0c0.98,0,1.98-0.11,2.96-0.11
		c0.46,0,0.92,0.02,1.37,0.1c0.92,0.14,1.84,0.19,2.75,0.19c1.39,0,2.77-0.1,4.15-0.1c0.79,0,1.63-0.16,2.43-0.16
		c0.25,0,0.49,0.02,0.73,0.06c0.96,0.15,1.92,0.2,2.88,0.2c1.3,0,2.6-0.09,3.88-0.12c0.22-0.01,0.45-0.01,0.68-0.01
		c1.09,0,2.2,0.05,3.29,0.05c0.14,0,0.29,0,0.43,0c0.25,0,0.5-0.01,0.75-0.01c3.35,0,6.69,0.31,10.05,0.31c0.35,0,0.7,0,1.06-0.01
		c0.07,0,0.13,0,0.2,0c0.93,0,1.84,0.12,2.77,0.18c4.13,0.23,8.27,0.3,12.4,0.73c2.92,0.3,5.9,0.24,8.84,0.53
		c2.56,0.25,5.12,0.42,7.66,0.75c1.65,0.21,3.29,0.42,4.94,0.42c1.12,0,2.24-0.09,3.37-0.35c-0.05-1.04-0.95-0.9-1.58-1.18
		c-0.19-0.09-0.4-0.11-0.62-0.11c-0.19,0-0.39,0.02-0.58,0.02c-0.39,0-0.76-0.07-1.08-0.47c0.12-0.01,0.24-0.02,0.37-0.02
		c0.76,0,1.51,0.24,2.3,0.24c0.36,0,0.73-0.05,1.11-0.19c-0.68-0.32-0.3-1.31-0.95-1.41c-1.29-0.19-2.44-0.83-3.8-0.85
		c-0.92-0.01-1.89-0.05-2.81-0.22c-0.38-0.07-0.76-0.14-1.14-0.21c0.81-0.21,1.35-0.55,1.49-0.98c0.26,0.03,0.52,0.05,0.77,0.08
		c1.98,0.21,3.96,0.47,5.95,0.47c0.02,0,0.05,0,0.07,0c0.61,0,0.76,0.38,0.43,0.89c0.07,0.01,0.14,0.02,0.21,0.02
		c0.58,0,0.76-0.46,0.73-0.77c-0.09-1.01-1.23-0.6-1.69-0.99c1.06-1.15,2.35-1.31,3.68-1.31c0.52,0,1.05,0.03,1.58,0.03
		c0.02,0,0.04,0,0.05,0c0.35,0,0.72,0.01,1.05,0.12c0.24,0.08,0.47,0.12,0.7,0.12c0.53,0,1.06-0.21,1.68-0.57
		c-1.29-1.02-2.79-1.33-3.75-1.97c1.06-0.37,2.15-0.47,3.27-0.47c1.49,0,3.02,0.19,4.56,0.19c0.48,0,0.95-0.02,1.43-0.06
		c-0.24-1.02-1.2-0.87-1.75-1.28c0.43-0.2,1.17-0.02,1.22-0.67c0.05-0.78-0.8-0.56-1.22-0.83c-0.05-0.03-0.11-0.04-0.17-0.04
		c-0.05,0-0.11,0.01-0.17,0.01c-0.11,0-0.21-0.02-0.27-0.15c-0.05-0.5,0.52-0.45,0.64-0.75c-0.61-1.49-1.98-1.63-3.37-1.78
		c0.32-0.14,0.63-0.19,0.95-0.19c0.9,0,1.79,0.42,2.69,0.42c0.42,0,0.83-0.09,1.26-0.35c-0.6-0.62-1.09-1.23-2-1.6
		c0.18-0.04,0.36-0.05,0.54-0.05c0.23,0,0.46,0.02,0.68,0.02c0.53,0,0.97-0.1,1.17-0.81c-0.31-0.75-1.17-0.62-1.85-1.2
		c0.17,0.04,0.32,0.06,0.48,0.06c0.52,0,0.98-0.18,1.49-0.18c0.26,0,0.54,0.05,0.84,0.19c-0.77-1.6-2.45-1.47-3.29-2.64
		c0.45,0.12,0.89,0.22,1.3,0.22c0.62,0,1.17-0.24,1.57-1.02c-0.27-0.1-0.46-0.17-0.84-0.31c1.43-0.41,0.32-2.22,1.9-2.42
		c-1.83-1.64-4.03-1.61-6.08-1.88c-2.79-0.36-5.55-0.93-8.39-1.05c-2.33-0.1-4.64-0.76-6.97-0.84c-2.68-0.09-5.31-0.59-7.96-0.84
		c-4.06-0.38-8.13-0.81-12.19-1.03c-2.89-0.16-5.78-0.39-8.67-0.47c-5.41-0.14-10.8-0.57-16.22-0.57c-0.04,0-0.08,0-0.12,0
		c-0.83,0-1.65,0.22-2.47,0.22c-0.29,0-0.57-0.03-0.86-0.1C47.76,0.06,47.43,0,47.12,0L47.12,0z M16.53,26.11
		c-0.47,0-0.97-0.16-1.5-0.54c6.67-0.4,13.3-0.59,19.91-0.59c12.58,0,25.05,0.7,37.4,2c-0.8,0.01-1.67,0.04-2.57,0.04
		c-0.7,0-1.42-0.02-2.14-0.08c-0.47-0.05-0.98-0.06-1.45-0.09c-3.1-0.17-6.23-0.08-9.32-0.36c-3.07-0.29-6.16-0.05-9.23-0.31
		c-1.2-0.1-2.43-0.16-3.67-0.16c-0.5,0-0.99,0.01-1.49,0.04c-0.89,0.04-1.77,0.06-2.66,0.06c-2.49,0-4.97-0.13-7.45-0.22
		c-0.74-0.02-1.47-0.03-2.21-0.03c-1.96,0-3.92,0.08-5.88,0.21c-0.6,0.04-1.2,0.06-1.8,0.06c-1.34,0-2.68-0.09-4.01-0.26
		c-0.11-0.01-0.21-0.02-0.32-0.02c-0.28,0-0.56,0.04-0.84,0.14C17.05,26.06,16.79,26.11,16.53,26.11L16.53,26.11z"/>
</svg>
